<?xml version="1.0" encoding="utf-8"?>
<!-- Generator: Adobe Illustrator 22.1.0, SVG Export Plug-In . SVG Version: 6.00 Build 0)  -->
<svg version="1.1" id="Capa_1" xmlns="http://www.w3.org/2000/svg" xmlns:xlink="http://www.w3.org/1999/xlink" x="0px" y="0px"
	 viewBox="0 0 50 45.5" style="enable-background:new 0 0 50 45.5;" xml:space="preserve">
<style type="text/css">
	.st0{fill:#016BAB;}
	.st1{fill:#FFFFFF;}
</style>
<path class="st0" d="M49.3,0.9c0.1,0.1,0.2,0.3,0.3,0.4C49.5,1.1,49.4,1,49.3,0.9z"/>
<path class="st0" d="M0.3,4C0.2,3.8,0.2,3.6,0.1,3.4C0.2,3.6,0.2,3.8,0.3,4z"/>
<path class="st0" d="M24.2,45.4c-0.1,0-0.3-0.1-0.4-0.2C24,45.3,24.1,45.4,24.2,45.4z"/>
<path class="st0" d="M48.7,0.4c0.2,0.1,0.3,0.2,0.4,0.3C49,0.6,48.9,0.5,48.7,0.4z"/>
<path class="st0" d="M48.2,0.2c0.1,0,0.2,0.1,0.4,0.2C48.4,0.2,48.3,0.2,48.2,0.2z"/>
<path class="st0" d="M47.3,0c0.2,0,0.4,0,0.6,0.1C47.7,0,47.5,0,47.3,0z"/>
<path class="st0" d="M0.9,0.7C1,0.6,1.1,0.6,1.2,0.5C1.1,0.6,1,0.6,0.9,0.7z"/>
<path class="st0" d="M0,2.5C0,2.3,0,2.2,0.1,2C0.1,2.2,0,2.4,0,2.5z"/>
<path class="st0" d="M0.1,3.2C0,3,0,2.9,0,2.8C0,2.9,0,3,0.1,3.2z"/>
<path class="st0" d="M0.5,1.2c0-0.1,0.1-0.2,0.2-0.3C0.6,1,0.5,1.1,0.5,1.2z"/>
<path class="st0" d="M1.4,0.3L1.4,0.3c0,0,0.1,0,0.2-0.1C1.5,0.3,1.4,0.3,1.4,0.3z"/>
<path class="st0" d="M2,0.1C2.2,0,2.4,0,2.7,0C2.4,0,2.2,0,2,0.1z"/>
<path class="st0" d="M25.5,45.5c-0.1,0-0.3,0-0.4,0.1C25.2,45.5,25.4,45.5,25.5,45.5z"/>
<path class="st0" d="M0.1,1.9c0.1-0.2,0.1-0.3,0.2-0.5C0.3,1.5,0.2,1.7,0.1,1.9z"/>
<path class="st0" d="M50,2.7L50,2.7c0,0,0,0.1,0,0.2C50,2.8,50,2.7,50,2.7z"/>
<path class="st0" d="M26.3,45.2c-0.2,0.1-0.3,0.2-0.5,0.2C25.9,45.4,26.1,45.3,26.3,45.2z"/>
<path class="st0" d="M27.3,44.2c-0.1,0.2-0.2,0.3-0.4,0.5C27.1,44.5,27.2,44.4,27.3,44.2z"/>
<path class="st0" d="M26.8,44.8c-0.1,0.1-0.2,0.2-0.3,0.2C26.6,45,26.7,44.9,26.8,44.8z"/>
<path class="st0" d="M49.7,1.4c0.1,0.1,0.1,0.2,0.2,0.4C49.8,1.7,49.7,1.6,49.7,1.4z"/>
<path class="st0" d="M24.9,45.5c-0.1,0-0.3,0-0.4-0.1C24.6,45.5,24.7,45.5,24.9,45.5z"/>
<path class="st0" d="M49.9,2c0,0.1,0,0.2,0.1,0.4C50,2.3,49.9,2.2,49.9,2z"/>
<path class="st0" d="M49.7,3.8c0.1-0.2,0.1-0.3,0.2-0.5C49.9,3.5,49.8,3.7,49.7,3.8z"/>
<path class="st0" d="M0.1,2c0-0.1,0-0.1,0-0.2C0.1,1.9,0.1,2,0.1,2z"/>
<path class="st0" d="M27,44.7c-0.1,0.1-0.1,0.1-0.2,0.2C26.8,44.8,26.9,44.7,27,44.7z"/>
<path class="st0" d="M24.5,45.5c-0.1,0-0.2,0-0.2,0C24.3,45.4,24.4,45.4,24.5,45.5z"/>
<path class="st0" d="M25,45.5h0.1c-0.1,0-0.1,0-0.2,0H25z"/>
<path class="st0" d="M0.1,3.4c0-0.1,0-0.2,0-0.2S0.1,3.3,0.1,3.4z"/>
<path class="st0" d="M0,2.8c0-0.1,0-0.2,0-0.3C0,2.6,0,2.7,0,2.8z"/>
<path class="st0" d="M26.5,45.1c-0.1,0-0.1,0.1-0.2,0.1C26.3,45.2,26.4,45.1,26.5,45.1z"/>
<path class="st0" d="M25.7,45.4c-0.1,0-0.1,0-0.2,0C25.6,45.5,25.7,45.4,25.7,45.4z"/>
<path class="st0" d="M50,2.8c0,0.2,0,0.3-0.1,0.5C50,3.2,50,3,50,2.8z"/>
<path class="st0" d="M50,2.4c0,0.1,0,0.2,0,0.3C50,2.6,50,2.5,50,2.4z"/>
<path class="st0" d="M49.8,1.8c0,0.1,0.1,0.1,0.1,0.2C49.9,2,49.9,1.9,49.8,1.8z"/>
<path class="st0" d="M49.6,1.3c0,0.1,0.1,0.1,0.1,0.2C49.6,1.4,49.6,1.3,49.6,1.3z"/>
<path class="st0" d="M49.3,0.9l-0.1-0.1C49.2,0.8,49.2,0.8,49.3,0.9z"/>
<path class="st0" d="M27.3,44.1C27.3,44.2,27.3,44.2,27.3,44.1C27.3,44.2,27.3,44.2,27.3,44.1L49.7,4c0-0.1,0-0.1,0.1-0.2
	c0,0.1,0,0.1-0.1,0.2L27.3,44.1z"/>
<path class="st0" d="M22.7,44.1L0.3,4l0,0l0,0L22.7,44.1c0.3,0.5,0.7,0.9,1.2,1.1c0,0-0.1,0-0.1-0.1C23.3,44.9,22.9,44.6,22.7,44.1z
	"/>
<path class="st0" d="M1.6,0.3C1.7,0.2,1.8,0.1,2,0.1C1.8,0.1,1.7,0.2,1.6,0.3z"/>
<path class="st0" d="M1.2,0.5c0.1,0,0.1-0.1,0.2-0.1C1.3,0.4,1.2,0.4,1.2,0.5z"/>
<path class="st0" d="M48.5,0.3c0.1,0,0.1,0.1,0.2,0.1C48.7,0.4,48.6,0.3,48.5,0.3z"/>
<path class="st0" d="M0.3,1.4c0-0.1,0.1-0.1,0.1-0.2C0.4,1.3,0.4,1.3,0.3,1.4z"/>
<path class="st0" d="M0.7,0.9c0.1-0.1,0.1-0.1,0.2-0.2C0.8,0.8,0.8,0.8,0.7,0.9z"/>
<path class="st0" d="M48,0.1c0.1,0,0.1,0,0.2,0.1C48.1,0.1,48,0.1,48,0.1z"/>
<path class="st0" d="M47.3,0L47.3,0L47.3,0z"/>
<path class="st0" d="M2.7,0L2.7,0L2.7,0L2.7,0z"/>
<g>
	<polygon class="st1" points="25,37.3 42.7,5.4 7.3,5.4 	"/>
	<path class="st0" d="M50,2.4c0-0.1,0-0.3-0.1-0.4c0-0.1,0-0.1-0.1-0.2c0-0.1-0.1-0.3-0.2-0.4c0-0.1-0.1-0.1-0.1-0.2
		c-0.1-0.1-0.2-0.3-0.3-0.4l-0.1-0.1c-0.1-0.1-0.3-0.2-0.4-0.3c-0.1,0-0.1-0.1-0.2-0.1c-0.1-0.1-0.2-0.1-0.4-0.2
		c-0.1,0-0.1,0-0.2-0.1c-0.2,0-0.4,0-0.6,0l0,0H2.7l0,0C2.4,0,2.2,0,2,0.1c-0.2,0-0.3,0.1-0.4,0.2c-0.1,0-0.1,0-0.2,0.1
		c-0.1,0-0.1,0.1-0.2,0.1C1.1,0.6,1,0.6,0.9,0.7S0.8,0.8,0.7,0.9S0.5,1.1,0.5,1.2S0.4,1.3,0.4,1.4C0.3,1.5,0.2,1.7,0.1,1.9
		c0,0.1,0,0.1,0,0.2C0.1,2.2,0,2.4,0,2.5s0,0.2,0,0.3s0,0.3,0,0.4c0,0.1,0,0.2,0,0.2C0.2,3.6,0.2,3.8,0.3,4l0,0l22.3,40.2
		c0.2,0.4,0.6,0.8,1,1c0,0,0.1,0,0.1,0.1c0.1,0.1,0.3,0.1,0.4,0.2c0.1,0,0.2,0,0.2,0c0.1,0,0.3,0,0.4,0.1c0.1,0,0.1,0,0.2,0
		s0.3,0,0.4-0.1c0.1,0,0.1,0,0.2,0c0.2-0.1,0.4-0.1,0.5-0.2c0.1,0,0.1-0.1,0.2-0.1c0.1-0.1,0.2-0.1,0.3-0.2c0.1-0.1,0.1-0.1,0.2-0.2
		c0.1-0.1,0.3-0.3,0.4-0.5l0,0L49.7,4c0-0.1,0-0.1,0.1-0.2c0.1-0.2,0.1-0.3,0.2-0.5c0-0.1,0-0.3,0-0.5c0-0.1,0-0.1,0-0.2
		C50,2.6,50,2.5,50,2.4z M25,37.3L7.3,5.4h35.5L25,37.3z"/>
</g>
</svg>
