<?xml version="1.0" encoding="utf-8"?>
<!-- Generator: Adobe Illustrator 22.1.0, SVG Export Plug-In . SVG Version: 6.00 Build 0)  -->
<svg version="1.1" id="Capa_1" xmlns="http://www.w3.org/2000/svg" xmlns:xlink="http://www.w3.org/1999/xlink" x="0px" y="0px"
	 viewBox="0 0 50 50" style="enable-background:new 0 0 50 50;" xml:space="preserve">
<style type="text/css">
	.st0{fill:#0C659F;}
</style>
<g>
	<path class="st0" d="M25.1,13.2c-6.4,0-11.7,5.2-11.7,11.7c0,2.2,0.6,4.4,1.8,6.2l0.3,0.4l-1.2,4.3l4.4-1.2l0.4,0.3
		c1.8,1.1,3.9,1.6,6,1.6h0c6.4,0,11.7-5.2,11.7-11.7c0-3.1-1.2-6.1-3.4-8.3C31.1,14.4,28.2,13.2,25.1,13.2z M31.9,29.9
		c-0.3,0.8-1.7,1.6-2.4,1.7c-0.6,0.1-1.4,0.1-2.2-0.1c-0.5-0.2-1.2-0.4-2-0.7c-3.5-1.5-5.8-5.1-6-5.3c-0.2-0.2-1.4-1.9-1.4-3.6
		s0.9-2.6,1.2-2.9c0.3-0.4,0.7-0.4,0.9-0.4c0.2,0,0.5,0,0.7,0c0.2,0,0.5-0.1,0.8,0.6c0.3,0.7,1,2.4,1.1,2.6c0.1,0.2,0.1,0.4,0,0.6
		c-0.1,0.2-0.5,0.7-0.9,1.2c-0.2,0.2-0.4,0.4-0.2,0.7c0.2,0.4,0.9,1.5,2,2.4c1.3,1.2,2.5,1.6,2.8,1.7c0.4,0.2,0.6,0.1,0.8-0.1
		c0.2-0.2,0.9-1,1.1-1.4c0.2-0.4,0.5-0.3,0.8-0.2c0.3,0.1,2.1,1,2.4,1.1c0.4,0.2,0.6,0.3,0.7,0.4C32.2,28.4,32.2,29.1,31.9,29.9z"/>
	<path class="st0" d="M25,0C11.2,0,0,11.2,0,25s11.2,25,25,25s25-11.2,25-25S38.8,0,25,0z M25.1,38.9L25.1,38.9
		c-2.4,0-4.7-0.6-6.7-1.7l-7.5,2l2-7.3c-1.2-2.1-1.9-4.6-1.9-7c0-7.8,6.3-14.1,14.1-14.1c3.8,0,7.3,1.5,9.9,4.1
		c2.7,2.7,4.1,6.2,4.1,10C39.1,32.6,32.8,38.9,25.1,38.9z"/>
</g>
</svg>
