<?xml version="1.0" encoding="utf-8"?>
<!-- Generator: Adobe Illustrator 22.1.0, SVG Export Plug-In . SVG Version: 6.00 Build 0)  -->
<svg version="1.1" id="Capa_1" xmlns="http://www.w3.org/2000/svg" xmlns:xlink="http://www.w3.org/1999/xlink" x="0px" y="0px"
	 viewBox="0 0 50 50" style="enable-background:new 0 0 50 50;" xml:space="preserve">
<style type="text/css">
	.st0{fill:#0C659F;}
</style>
<g>
	<polygon class="st0" points="29.1,26.1 28.7,30.5 25,31.5 21.2,30.5 21,27.8 17.7,27.8 18.1,33.1 25,35 25,35 25,35 31.9,33.1 
		32.8,22.7 20.6,22.7 20.3,19.3 33.1,19.3 33.4,16 16.6,16 17.5,26.1 	"/>
	<path class="st0" d="M25,0C11.2,0,0,11.2,0,25s11.2,25,25,25s25-11.2,25-25S38.8,0,25,0z M36,38l-11,3.6L14,38l-2.4-27.6h26.8
		L36,38z"/>
</g>
</svg>
