<?xml version="1.0" encoding="utf-8"?>
<!-- Generator: Adobe Illustrator 22.1.0, SVG Export Plug-In . SVG Version: 6.00 Build 0)  -->
<svg version="1.1" id="Capa_1" xmlns="http://www.w3.org/2000/svg" xmlns:xlink="http://www.w3.org/1999/xlink" x="0px" y="0px"
	 viewBox="0 0 50 50" style="enable-background:new 0 0 50 50;" xml:space="preserve">
<style type="text/css">
	.st0{fill:#FFFFFF;}
</style>
<g>
	<path class="st0" d="M47.2,39H2.8C1.3,39,0,40.3,0,42c0,1.7,1.3,3,2.8,3h44.4c1.5,0,2.8-1.4,2.8-3C50,40.3,48.7,39,47.2,39z"/>
	<path class="st0" d="M47.2,22H2.8C1.3,22,0,23.3,0,25c0,1.7,1.3,3,2.8,3h44.4c1.5,0,2.8-1.4,2.8-3C50,23.3,48.7,22,47.2,22z"/>
	<path class="st0" d="M2.8,11h44.4c1.5,0,2.8-1.4,2.8-3s-1.3-3-2.8-3H2.8C1.3,5,0,6.4,0,8S1.3,11,2.8,11z"/>
</g>
</svg>
