<?xml version="1.0" encoding="utf-8"?>
<!-- Generator: Adobe Illustrator 22.1.0, SVG Export Plug-In . SVG Version: 6.00 Build 0)  -->
<svg version="1.1" id="Capa_1" xmlns="http://www.w3.org/2000/svg" xmlns:xlink="http://www.w3.org/1999/xlink" x="0px" y="0px"
	 viewBox="0 0 50 50" style="enable-background:new 0 0 50 50;" xml:space="preserve">
<style type="text/css">
	.st0{fill:#0C659F;}
</style>
<path class="st0" d="M24.8,0C11,0-0.2,11.2-0.2,25s11.2,25,25,25s25-11.2,25-25S38.6,0,24.8,0z M18.4,37.4h-5.1V20.8h5.1V37.4z
	 M15.9,18.6c-1.7,0-2.9-1.3-2.9-3s1.3-2.9,2.9-2.9c1.7,0,2.9,1.3,2.9,2.9C18.8,17.2,17.5,18.6,15.9,18.6z M37.7,37.4L37.7,37.4h-5.1
	v-8.1c0-1.9,0-4.4-2.7-4.4s-3.1,2.1-3.1,4.3v8.2h-5.1V20.8h5v2.3h0.1c0.7-1.3,2.4-2.7,4.9-2.7c5.2,0,6.1,3.4,6.1,7.9
	C37.7,28.3,37.7,37.4,37.7,37.4z"/>
</svg>
