<?xml version="1.0" encoding="utf-8"?>
<!-- Generator: Adobe Illustrator 22.1.0, SVG Export Plug-In . SVG Version: 6.00 Build 0)  -->
<svg version="1.1" id="Capa_1" xmlns="http://www.w3.org/2000/svg" xmlns:xlink="http://www.w3.org/1999/xlink" x="0px" y="0px"
	 viewBox="0 0 50 50" style="enable-background:new 0 0 50 50;" xml:space="preserve">
<style type="text/css">
	.st0{fill:#0C659F;}
</style>
<g>
	<path class="st0" d="M25,0.4C11.2,0.4,0.1,11.6,0.1,25.4c0,5.6,1.9,10.8,5,15c3.4,4.5,8.3,7.8,14,9.2c0.1-0.1,0.1-0.3,0.1-0.4
		c0-0.6,0-3.9,0-5.8c0,0-6.7,1.4-8-2.8c0,0-1-2.7-2.6-3.5c0,0-2.2-1.5,0.2-1.5c0,0,2.3,0.2,3.7,2.4c2.1,3.7,5.5,2.6,6.9,2
		c0.2-1.5,0.8-2.5,1.5-3.2c-5.3-0.6-10.6-1.3-10.6-10.4c0-2.6,0.8-3.9,2.3-5.5c-0.3-0.7-1-3.2,0.3-6.4c2-0.7,6.6,2.5,6.6,2.5
		c1.9-0.6,3.9-0.8,5.9-0.8c2,0,4,0.3,5.9,0.8c0,0,4.5-3.2,6.6-2.5c1.3,3.3,0.5,5.8,0.3,6.4c1.5,1.7,2.4,3,2.4,5.5
		c0,9.1-5.5,9.9-10.9,10.4c0.8,0.8,1.6,2.2,1.6,4.4c0,3.2,0,7.1,0,7.9c0,0.2,0,0.3,0.1,0.5c5.8-1.5,10.7-5,14.1-9.7
		c2.9-4.1,4.6-9.1,4.6-14.4C49.9,11.6,38.8,0.4,25,0.4z"/>
	<path class="st0" d="M10.7,37.2c-0.1,0.1-0.1,0.3,0.1,0.5c0.2,0.2,0.4,0.2,0.5,0.1c0.1-0.1,0.1-0.3-0.1-0.5
		C11.1,37.1,10.8,37.1,10.7,37.2z"/>
	<path class="st0" d="M11.7,38.4c-0.2,0.1-0.2,0.4,0,0.6s0.4,0.3,0.6,0.2c0.2-0.1,0.2-0.4,0-0.6C12,38.4,11.8,38.3,11.7,38.4z"/>
	<path class="st0" d="M9.7,36.4c-0.1,0.1,0,0.3,0.2,0.4c0.2,0.1,0.4,0.1,0.4-0.1c0.1-0.1,0-0.3-0.2-0.4S9.8,36.3,9.7,36.4z"/>
	<path class="st0" d="M18.4,40.9c-0.3,0.1-0.5,0.3-0.5,0.5s0.3,0.3,0.6,0.3c0.3-0.1,0.5-0.3,0.5-0.5S18.7,40.8,18.4,40.9z"/>
	<path class="st0" d="M16.2,41.4c0,0.3,0.3,0.4,0.6,0.4s0.5-0.2,0.5-0.4c0-0.3-0.2-0.4-0.6-0.4C16.4,41,16.2,41.2,16.2,41.4z"/>
	<path class="st0" d="M14.3,40.9c-0.1,0.2,0.1,0.4,0.4,0.5c0.3,0.1,0.6,0,0.6-0.2s-0.1-0.4-0.4-0.5C14.7,40.7,14.4,40.8,14.3,40.9z"
		/>
	<path class="st0" d="M12.8,39.8c-0.2,0.1-0.1,0.4,0.1,0.6c0.2,0.2,0.5,0.3,0.7,0.1c0.1-0.1,0.1-0.4-0.1-0.6
		C13.2,39.6,12.9,39.6,12.8,39.8z"/>
</g>
</svg>
