<?xml version="1.0" encoding="utf-8"?>
<!-- Generator: Adobe Illustrator 22.1.0, SVG Export Plug-In . SVG Version: 6.00 Build 0)  -->
<svg version="1.1" id="Capa_1" xmlns="http://www.w3.org/2000/svg" xmlns:xlink="http://www.w3.org/1999/xlink" x="0px" y="0px"
	 viewBox="0 0 50 50" style="enable-background:new 0 0 50 50;" xml:space="preserve">
<style type="text/css">
	.st0{fill:#0C659F;}
</style>
<g>
	<polygon class="st0" points="-32,-108.2 -32.4,-103.8 -36.1,-102.8 -39.9,-103.8 -40.1,-106.5 -43.4,-106.5 -43,-101.2 
		-36.1,-99.3 -36.1,-99.3 -36.1,-99.3 -29.2,-101.2 -28.3,-111.6 -40.5,-111.6 -40.8,-115 -28,-115 -27.7,-118.3 -44.5,-118.3 
		-43.6,-108.2 	"/>
	<path class="st0" d="M-36.1-134.3c-13.8,0-25,11.2-25,25s11.2,25,25,25s25-11.2,25-25S-22.3-134.3-36.1-134.3z M-25.1-96.3l-11,3.6
		l-11-3.6l-2.4-27.6h26.8L-25.1-96.3z"/>
</g>
<circle class="st0" cx="-37.2" cy="25" r="25"/>
<path class="st0" d="M-91.1-81c-13.8,0-25,11.2-25,25s11.2,25,25,25s25-11.2,25-25S-77.3-81-91.1-81z M-87.9-47.4
	c0,3.8-2.3,5.5-5.5,5.5c-3,0-4.7-1.5-5.5-3.3l3.1-1.8c0.6,1,1.1,1.9,2.3,1.9s2-0.5,2-2.3V-60h3.7V-47.4z M-79.2-41.9
	c-3.4,0-5.6-1.6-6.8-3.8l3-1.7c0.8,1.3,1.8,2.3,3.6,2.3c1.5,0,2.5-0.8,2.5-1.8c0-1.3-1-1.7-2.7-2.5l-0.8-0.4
	c-2.6-1.1-4.4-2.6-4.4-5.5c0-2.8,2.1-4.9,5.4-4.9c2.3,0,4.1,0.8,5.3,3l-2.8,1.8c-0.6-1.1-1.4-1.6-2.3-1.6c-1.1,0-1.8,0.7-1.8,1.6
	c0,1.1,0.7,1.6,2.3,2.3l0.9,0.4c3.1,1.4,4.9,2.7,4.9,5.8C-73.1-43.7-75.7-41.9-79.2-41.9z"/>
<g>
	<path class="st0" d="M-93.5-134.2c-13.8,0-25,11.2-25,25s11.2,25,25,25s25-11.2,25-25S-79.7-134.2-93.5-134.2z M-96.2-104.1
		c0,5.4-3.2,7.8-7.8,7.8c-4.2,0-6.6-2.1-7.8-4.7l4.3-2.6c0.8,1.4,1.6,2.7,3.3,2.7c1.7,0,2.8-0.7,2.8-3.3v-17.6h5.2V-104.1z
		 M-83.9-96.3c-4.8,0-7.9-2.3-9.5-5.3l4.2-2.4c1.1,1.8,2.6,3.2,5.1,3.2c2.1,0,3.5-1.1,3.5-2.6c0-1.8-1.4-2.4-3.8-3.5l-1.1-0.6
		c-3.7-1.6-6.2-3.6-6.2-7.8c0-3.9,3-6.9,7.6-6.9c3.3,0,5.7,1.1,7.4,4.2l-4,2.6c-0.9-1.6-1.9-2.2-3.3-2.2c-1.5,0-2.5,1-2.5,2.2
		c0,1.6,1,2.2,3.2,3.2l1.3,0.6c4.4,1.9,6.9,3.8,6.9,8.2C-75.3-98.9-79-96.3-83.9-96.3z"/>
</g>
<path class="st0" d="M18.9-81c-13.8,0-25,11.2-25,25s11.2,25,25,25s25-11.2,25-25S32.7-81,18.9-81z M32.5-49.5c0,0.8-0.5,1.6-1.2,2
	L20.1-41c-0.4,0.2-0.8,0.3-1.2,0.3c-0.4,0-0.8-0.1-1.2-0.3L14-43.2c-0.6-0.3-0.3-0.4-0.1-0.5c0.7-0.3,0.9-0.3,1.7-0.8
	c0.1,0,0.2,0,0.3,0l2.9,1.7c0.1,0.1,0.2,0.1,0.3,0l11.2-6.5c0.1-0.1,0.2-0.2,0.2-0.3v-13c0-0.1-0.1-0.2-0.2-0.3l-11.2-6.5
	c-0.1-0.1-0.2-0.1-0.3,0L7.5-62.8c-0.1,0.1-0.2,0.2-0.2,0.3v13c0,0.1,0.1,0.2,0.2,0.3l3.1,1.8c1.7,0.8,2.7-0.1,2.7-1.1v-12.8
	c0-0.2,0.1-0.3,0.3-0.3H15c0.2,0,0.3,0.1,0.3,0.3v12.8c0,2.2-1.2,3.5-3.3,3.5c-0.7,0-1.2,0-2.6-0.7l-2.9-1.7c-0.7-0.4-1.2-1.2-1.2-2
	v-13c0-0.8,0.5-1.6,1.2-2L17.7-71c0.7-0.4,1.7-0.4,2.4,0l11.2,6.5c0.7,0.4,1.2,1.2,1.2,2V-49.5z M21.8-55c-3.1-0.3-5-1-5-3.4
	c0-2.3,1.9-3.6,5.1-3.6c3.6,0,5.4,1.2,5.6,3.9c0,0.1,0,0.2-0.1,0.2c-0.1,0.1-0.1,0.1-0.2,0.1h-1.5c-0.2,0-0.3-0.1-0.3-0.3
	c-0.4-1.6-1.2-2.1-3.5-2.1c-2.6,0-2.9,0.9-2.9,1.6c0,0.8,0.4,1.1,3.8,1.5c3.4,0.5,5.1,1.1,5.1,3.5c0,2.4-2,3.8-5.6,3.9
	c-4.9,0-5.9-2.3-5.9-4.1c0-0.2,0.1-0.3,0.3-0.3h1.5c0.2,0,0.3,0.1,0.3,0.3c0.2,1.5,0.9,2.2,3.8,2.2c2.4,0,3.4-0.5,3.4-1.8
	C25.7-54.1,25.4-54.6,21.8-55z"/>
<g>
	<path class="st0" d="M77-61.2c0.4,0.6,0.7,1.1,1,1.7c0.3,0.6,0.7,1.2,1,1.8c0.4-1,0.8-2,1.1-3C79.2-60.9,78.1-61.1,77-61.2z"/>
	<path class="st0" d="M68.9-50.6c1,0.1,2,0.1,3.1,0.1s2.1,0,3.2-0.1c0.6-0.9,1.1-1.8,1.7-2.7c0.5-0.9,1-1.8,1.5-2.8
		c-0.5-0.9-1-1.9-1.5-2.8c-0.5-0.9-1.1-1.8-1.7-2.6c-1-0.1-2.1-0.1-3.1-0.1s-2.1,0-3.1,0.1c-0.6,0.9-1.1,1.8-1.7,2.7
		c-0.5,0.9-1,1.8-1.5,2.8c0.5,0.9,0.9,1.9,1.5,2.8C67.7-52.3,68.3-51.4,68.9-50.6z M72-59.1c1.7,0,3.1,1.4,3.1,3.1
		c0,1.7-1.4,3.1-3.1,3.1s-3.1-1.4-3.1-3.1C68.9-57.7,70.3-59.1,72-59.1z"/>
	<path class="st0" d="M74-63c-0.6-0.8-1.3-1.7-2-2.4c-0.7,0.7-1.4,1.6-2,2.4C71.3-63,72.7-63,74-63z"/>
	<path class="st0" d="M79.1-54.3c-0.3,0.6-0.6,1.2-1,1.8c-0.3,0.6-0.7,1.2-1.1,1.8c1.1-0.1,2.2-0.3,3.2-0.5
		C79.9-52.3,79.5-53.3,79.1-54.3z"/>
	<path class="st0" d="M63.5-62.1c1.5-0.3,3.1-0.6,4.6-0.7c0.9-1.3,1.9-2.5,2.9-3.6c-0.2-0.2-0.3-0.3-0.5-0.5
		c-2.7-2.4-5.2-3.3-6.4-2.7c-1.1,0.6-1.5,3.1-0.9,6.4C63.3-62.8,63.4-62.5,63.5-62.1z"/>
	<path class="st0" d="M80.6-62.1c0.1-0.2,0.1-0.5,0.2-0.7c0.7-3.5,0.3-6.2-0.9-6.9c-1.1-0.6-3.5,0.2-6,2.5c-0.3,0.2-0.5,0.5-0.8,0.7
		c1.1,1.1,2,2.4,2.9,3.6C77.5-62.7,79-62.5,80.6-62.1z"/>
	<path class="st0" d="M67-50.7c-0.4-0.6-0.7-1.2-1.1-1.8c-0.3-0.6-0.7-1.2-1-1.8c-0.4,1-0.8,2.1-1.1,3C64.9-51,65.9-50.8,67-50.7z"
		/>
	<path class="st0" d="M67-61.2c-1.1,0.1-2.1,0.3-3.1,0.5c0.3,1,0.7,2,1.1,3c0.3-0.6,0.6-1.2,1-1.8C66.3-60.1,66.6-60.7,67-61.2z"/>
	<path class="st0" d="M80.6-49.9c-1.5,0.3-3.1,0.6-4.7,0.7c-0.9,1.3-1.8,2.5-2.9,3.7c0.3,0.3,0.6,0.5,0.9,0.8c2.5,2.1,4.8,3,5.9,2.3
		c0.7-0.5,1.1-1.3,1.1-2.1c0.2-1.5,0.2-3.1-0.2-4.5C80.8-49.3,80.7-49.6,80.6-49.9z"/>
	<path class="st0" d="M82.6-60c-0.3-0.1-0.7-0.2-1-0.3c-0.5,1.5-1,2.9-1.7,4.3c0.7,1.4,1.3,2.9,1.7,4.4c0.2-0.1,0.4-0.1,0.6-0.2
		C85.7-53,88-54.7,88-56C88-57.3,85.8-58.9,82.6-60z"/>
	<path class="st0" d="M72-81c-13.8,0-25,11.2-25,25s11.2,25,25,25s25-11.2,25-25S85.8-81,72-81z M82.7-50.4
		c-0.2,0.1-0.4,0.1-0.6,0.2c0.1,0.3,0.1,0.6,0.2,0.9c0.8,3.9,0.2,7.2-1.7,8.2c-1.8,1-4.7,0-7.6-2.5c-0.3-0.3-0.6-0.6-0.9-0.8
		c-0.2,0.2-0.5,0.5-0.7,0.7c-3,2.6-6.1,3.7-8,2.7c-1.8-1-2.4-4-1.6-7.8c0.1-0.4,0.2-0.8,0.3-1.2c-0.3-0.1-0.6-0.2-0.9-0.3
		c-3.8-1.3-6.6-3.4-6.6-5.6c0-2.1,2.6-4.1,6.3-5.3c0.4-0.1,0.8-0.3,1.3-0.4c-0.1-0.4-0.2-0.8-0.3-1.1c-0.8-3.9-0.2-6.9,1.6-8
		c1.9-1.1,5,0.1,8.1,2.8c0.2,0.2,0.4,0.3,0.6,0.5c0.3-0.3,0.6-0.5,0.9-0.8c3-2.6,5.9-3.7,7.7-2.6c1.9,1.1,2.4,4.4,1.6,8.4
		C82.1-62.2,82-62,82-61.7c0.4,0.1,0.7,0.2,1.1,0.3c3.7,1.3,6.4,3.3,6.4,5.4C89.5-53.9,86.7-51.7,82.7-50.4z"/>
	<path class="st0" d="M62.4-60.3c-0.4,0.1-0.8,0.2-1.2,0.4C58.1-58.9,56-57.3,56-56c0.1,0.8,0.6,1.6,1.3,2c1.2,1,2.9,1.7,4.3,2.1
		c0.3,0.1,0.6,0.2,0.8,0.3c0.5-1.5,1-3,1.7-4.4C63.4-57.4,62.9-58.9,62.4-60.3z"/>
	<path class="st0" d="M63.4-49.8c-0.1,0.4-0.2,0.8-0.3,1.1c-0.6,3.2-0.2,5.7,0.9,6.3c0.8,0.3,1.7,0.3,2.4-0.1
		c1.4-0.6,2.7-1.4,3.9-2.4c0.2-0.2,0.4-0.4,0.7-0.6c-1.1-1.1-2.1-2.4-3-3.7C66.5-49.3,65-49.5,63.4-49.8z"/>
	<path class="st0" d="M72-49c-0.7,0-1.4,0-2,0c0.7,0.9,1.4,1.7,2.1,2.5c0.7-0.8,1.4-1.6,2-2.5C73.4-49,72.7-49,72-49z"/>
</g>
<g>
	<path class="st0" d="M185.6-61.2c0.4,0.6,0.7,1.1,1,1.7c0.3,0.6,0.7,1.2,1,1.8c0.4-1,0.8-2,1.1-3C187.8-60.9,186.7-61.1,185.6-61.2
		z"/>
	<path class="st0" d="M177.5-50.6c1,0.1,2,0.1,3.1,0.1s2.1,0,3.2-0.1c0.6-0.9,1.1-1.8,1.7-2.7c0.5-0.9,1-1.8,1.5-2.8
		c-0.5-0.9-1-1.9-1.5-2.8c-0.5-0.9-1.1-1.8-1.7-2.6c-1-0.1-2.1-0.1-3.1-0.1s-2.1,0-3.1,0.1c-0.6,0.9-1.1,1.8-1.7,2.7
		c-0.5,0.9-1,1.8-1.5,2.8c0.5,0.9,0.9,1.9,1.5,2.8C176.3-52.3,176.9-51.4,177.5-50.6z M180.6-59.1c1.7,0,3.1,1.4,3.1,3.1
		c0,1.7-1.4,3.1-3.1,3.1s-3.1-1.4-3.1-3.1C177.5-57.7,178.9-59.1,180.6-59.1z"/>
	<path class="st0" d="M182.6-63c-0.6-0.8-1.3-1.7-2-2.4c-0.7,0.7-1.4,1.6-2,2.4C179.9-63,181.3-63,182.6-63z"/>
	<path class="st0" d="M187.7-54.3c-0.3,0.6-0.6,1.2-1,1.8c-0.3,0.6-0.7,1.2-1.1,1.8c1.1-0.1,2.2-0.3,3.2-0.5
		C188.5-52.3,188.1-53.3,187.7-54.3z"/>
	<path class="st0" d="M172.1-62.1c1.5-0.3,3.1-0.6,4.6-0.7c0.9-1.3,1.9-2.5,2.9-3.6c-0.2-0.2-0.3-0.3-0.5-0.5
		c-2.7-2.4-5.2-3.3-6.4-2.7c-1.1,0.6-1.5,3.1-0.9,6.4C171.9-62.8,172-62.5,172.1-62.1z"/>
	<path class="st0" d="M189.2-62.1c0.1-0.2,0.1-0.5,0.2-0.7c0.7-3.5,0.3-6.2-0.9-6.9c-1.1-0.6-3.5,0.2-6,2.5
		c-0.3,0.2-0.5,0.5-0.8,0.7c1.1,1.1,2,2.4,2.9,3.6C186.1-62.7,187.6-62.5,189.2-62.1z"/>
	<path class="st0" d="M175.6-50.7c-0.4-0.6-0.7-1.2-1.1-1.8c-0.3-0.6-0.7-1.2-1-1.8c-0.4,1-0.8,2.1-1.1,3
		C173.5-51,174.5-50.8,175.6-50.7z"/>
	<path class="st0" d="M175.6-61.2c-1.1,0.1-2.1,0.3-3.1,0.5c0.3,1,0.7,2,1.1,3c0.3-0.6,0.6-1.2,1-1.8
		C174.9-60.1,175.2-60.7,175.6-61.2z"/>
	<path class="st0" d="M189.2-49.9c-1.5,0.3-3.1,0.6-4.7,0.7c-0.9,1.3-1.8,2.5-2.9,3.7c0.3,0.3,0.6,0.5,0.9,0.8
		c2.5,2.1,4.8,3,5.9,2.3c0.7-0.5,1.1-1.3,1.1-2.1c0.2-1.5,0.2-3.1-0.2-4.5C189.4-49.3,189.3-49.6,189.2-49.9z"/>
	<path class="st0" d="M191.2-60c-0.3-0.1-0.7-0.2-1-0.3c-0.5,1.5-1,2.9-1.7,4.3c0.7,1.4,1.3,2.9,1.7,4.4c0.2-0.1,0.4-0.1,0.6-0.2
		c3.4-1.1,5.8-2.9,5.8-4.2C196.6-57.3,194.4-58.9,191.2-60z"/>
	<path class="st0" d="M180.6-81c-13.8,0-25,11.2-25,25s11.2,25,25,25s25-11.2,25-25S194.4-81,180.6-81z M191.3-50.4
		c-0.2,0.1-0.4,0.1-0.6,0.2c0.1,0.3,0.1,0.6,0.2,0.9c0.8,3.9,0.2,7.2-1.7,8.2c-1.8,1-4.7,0-7.6-2.5c-0.3-0.3-0.6-0.6-0.9-0.8
		c-0.2,0.2-0.5,0.5-0.7,0.7c-3,2.6-6.1,3.7-8,2.7c-1.8-1-2.4-4-1.6-7.8c0.1-0.4,0.2-0.8,0.3-1.2c-0.3-0.1-0.6-0.2-0.9-0.3
		c-3.8-1.3-6.6-3.4-6.6-5.6c0-2.1,2.6-4.1,6.3-5.3c0.4-0.1,0.8-0.3,1.3-0.4c-0.1-0.4-0.2-0.8-0.3-1.1c-0.8-3.9-0.2-6.9,1.6-8
		c1.9-1.1,5,0.1,8.1,2.8c0.2,0.2,0.4,0.3,0.6,0.5c0.3-0.3,0.6-0.5,0.9-0.8c3-2.6,5.9-3.7,7.7-2.6c1.9,1.1,2.4,4.4,1.6,8.4
		c-0.1,0.3-0.1,0.5-0.2,0.8c0.4,0.1,0.7,0.2,1.1,0.3c3.7,1.3,6.4,3.3,6.4,5.4C198.1-53.9,195.3-51.7,191.3-50.4z"/>
	<path class="st0" d="M171-60.3c-0.4,0.1-0.8,0.2-1.2,0.4c-3.1,1.1-5.3,2.7-5.3,3.9c0.1,0.8,0.6,1.6,1.3,2c1.2,1,2.9,1.7,4.3,2.1
		c0.3,0.1,0.6,0.2,0.8,0.3c0.5-1.5,1-3,1.7-4.4C172.1-57.4,171.5-58.9,171-60.3z"/>
	<path class="st0" d="M172-49.8c-0.1,0.4-0.2,0.8-0.3,1.1c-0.6,3.2-0.2,5.7,0.9,6.3c0.8,0.3,1.7,0.3,2.4-0.1
		c1.4-0.6,2.7-1.4,3.9-2.4c0.2-0.2,0.4-0.4,0.7-0.6c-1.1-1.1-2.1-2.4-3-3.7C175.1-49.3,173.6-49.5,172-49.8z"/>
	<path class="st0" d="M180.6-49c-0.7,0-1.4,0-2,0c0.7,0.9,1.4,1.7,2.1,2.5c0.7-0.8,1.4-1.6,2-2.5C182-49,181.3-49,180.6-49z"/>
</g>
<g>
	<polygon class="st0" points="-32,-55.6 -32.4,-51.3 -36.1,-50.3 -39.8,-51.3 -40.1,-53.9 -43.4,-53.9 -43,-48.7 -36.1,-46.8 
		-36.1,-46.8 -36.1,-46.8 -29.3,-48.7 -28.3,-59 -40.5,-59 -40.8,-62.4 -28.1,-62.4 -27.7,-65.7 -44.4,-65.7 -43.6,-55.6 	"/>
	<path class="st0" d="M-36.1-81c-13.8,0-25,11.2-25,25s11.2,25,25,25s25-11.2,25-25S-22.3-81-36.1-81z M-25.2-43.8l-10.9,3.6
		L-47-43.8l-2.4-27.4h26.6L-25.2-43.8z"/>
</g>
<g>
	<path class="st0" d="M115.4-47.9h3.3l1.8-4.5h7.6l1.8,4.5h3.3l-8.9-20L115.4-47.9z M121.6-55.2l2.6-6.3l2.6,6.3H121.6z"/>
	<path class="st0" d="M124.3-81c-13.8,0-25,11.2-25,25s11.2,25,25,25s25-11.2,25-25S138.1-81,124.3-81z M136.3-47.4l-12,6.7l-12-6.7
		L110-66.2l14.2-5.1l14.2,5.1L136.3-47.4z"/>
</g>
<g>
	<path class="st0" d="M234-81c-13.8,0-25,11.2-25,25s11.2,25,25,25s25-11.2,25-25S247.8-81,234-81z M244.9-43.8L234-40.2l-10.9-3.6
		l-2.4-27.5h26.7L244.9-43.8z"/>
	<polygon class="st0" points="234.5,-62.5 234.1,-62.3 226.3,-59.1 226.5,-55.8 226.6,-55.9 226.6,-55.8 238.1,-55.8 237.8,-51.5 
		234,-50.5 230.4,-51.4 230.2,-54 226.8,-54 227.2,-48.9 234.1,-46.9 240.9,-48.9 241.8,-59.1 234,-59.1 234.1,-59.1 242.1,-62.5 
		242.4,-65.8 225.6,-65.8 226,-62.5 	"/>
</g>
<path class="st0" d="M291-81c-13.8,0-25,11.2-25,25s11.2,25,25,25s25-11.2,25-25S304.8-81,291-81z M292.3-68.9
	c1.1-1.3,3-2.3,4.6-2.4c0.1,0.7,0.2,2.7-1.6,5c-1.3,1.6-3,2.5-4.8,2.3C290.4-65.9,291.1-67.6,292.3-68.9z M296.4-40.7
	c-1.9,0-3.1-1.2-5.2-1.2c-2.2,0-3.5,1.2-5.2,1.2c-3.3,0.1-6.5-6.1-7.3-8.6c-0.7-1.9-1-3.8-1-5.6c0-6.1,4.1-9.1,7.9-9.1
	c1.8,0,4.2,1.3,5.2,1.3c1,0,3.6-1.6,6.1-1.4c2.6,0.2,4.5,1.2,5.8,3.1c-2.3,1.4-3.4,3.3-3.4,5.8c0,0.1-0.2,4.2,4.2,6.3
	C302.5-46.3,299.7-40.7,296.4-40.7z"/>
<g>
	<path class="st0" d="M331.7-46.8c0,1.9,6.6,1.9,6.6-0.2c0-1-1-0.9-5.9-1.2C332-47.8,331.7-47.3,331.7-46.8z"/>
	<path class="st0" d="M335.1-59.8c-3.2,0-3.4,4.4-0.1,4.4C338.3-55.4,338.2-59.8,335.1-59.8z"/>
	<path class="st0" d="M344.7-81c-13.8,0-25,11.2-25,25s11.2,25,25,25s25-11.2,25-25S358.5-81,344.7-81z M346.6-68.9
		c1.5,0,2.3,0.8,2.3,2.2c0,1.4-0.8,2.3-2.3,2.3c-1.4,0-2.3-0.8-2.3-2.3C344.4-68.1,345.2-68.9,346.6-68.9z M340.8-57.2
		c0,4.9-5.7,4.7-7.4,4.2l-0.8,1.3c6.7,0.4,9.5,0.3,9.5,3.9c0,2.9-2.6,4.6-7,4.6c-4.6,0-6.4-1.2-6.4-3.2c0-1.1,0.5-1.8,1.4-2.6
		c-0.8-0.4-1.1-1-1.1-1.7c0-1,0.7-1.6,2.3-3.1c-1.3-0.6-2.2-1.9-2.2-3.8c0-5.2,5.7-5.3,8.2-4.7h5l0,2.2l-2.3,0.2
		C340.3-59.2,340.8-58.4,340.8-57.2z M350.6-49.1h-7.2v-2c1.7-0.2,1.7-0.1,1.7-0.7v-7.5c0-0.5-0.1-0.5-1.7-1l0.3-2.1h5.3v10.5
		c0,0.4,0,0.5,0.4,0.5l1.3,0.2V-49.1z M356.5-49.1c-3,0-4.2-1.2-4.2-4.1v-6.7c0-0.3,0.1-0.3-2-0.3v-2.3c2.2-0.3,3.1-1.4,3.4-4.1h2.4
		c0,4.1-0.1,3.9,0.2,3.9h3.6v2.5h-3.8v6.1c0,0.4-0.3,3.2,3.8,1.7l0.7,2.2C359.6-49.6,358-49.1,356.5-49.1z"/>
</g>
<g>
	<path class="st0" d="M12,34.2c0,1.9,6.6,1.9,6.6-0.2c0-1-1-0.9-5.9-1.2C12.3,33.2,12,33.7,12,34.2z"/>
	<path class="st0" d="M15.5,21.2c-3.2,0-3.4,4.4-0.1,4.4C18.6,25.6,18.5,21.2,15.5,21.2z"/>
	<path class="st0" d="M25,0C11.2,0,0,11.2,0,25s11.2,25,25,25s25-11.2,25-25S38.8,0,25,0z M27,12.1c1.5,0,2.3,0.8,2.3,2.2
		c0,1.4-0.8,2.3-2.3,2.3c-1.4,0-2.3-0.8-2.3-2.3C24.7,12.9,25.5,12.1,27,12.1z M21.1,23.8c0,4.9-5.7,4.7-7.4,4.2l-0.8,1.3
		c6.7,0.4,9.5,0.3,9.5,3.9c0,2.9-2.6,4.6-7,4.6c-4.6,0-6.4-1.2-6.4-3.2c0-1.1,0.5-1.8,1.4-2.6c-0.8-0.4-1.1-1-1.1-1.7
		c0-1,0.7-1.6,2.3-3.1c-1.3-0.6-2.2-1.9-2.2-3.8c0-5.2,5.7-5.3,8.2-4.7h5l0,2.2l-2.3,0.2C20.6,21.8,21.1,22.6,21.1,23.8z M31,31.9
		h-7.2v-2c1.7-0.2,1.7-0.1,1.7-0.7v-7.5c0-0.5-0.1-0.5-1.7-1l0.3-2.1h5.3v10.5c0,0.4,0,0.5,0.4,0.5l1.3,0.2V31.9z M36.9,31.9
		c-3,0-4.2-1.2-4.2-4.1v-6.7c0-0.3,0.1-0.3-2-0.3v-2.3c2.2-0.3,3.1-1.4,3.4-4.1h2.4c0,4.1-0.1,3.9,0.2,3.9h3.6v2.5h-3.8V27
		c0,0.4-0.3,3.2,3.8,1.7l0.7,2.2C39.9,31.4,38.3,31.9,36.9,31.9z"/>
</g>
<g>
	<g>
		<path class="st0" d="M402-81c-13.8,0-25,11.2-25,25s11.2,25,25,25s25-11.2,25-25S415.8-81,402-81z M417.3-41.6L417.3-41.6
			c-1.9-3.7-5.5-2.8-7.3-1.9c-0.2,0.1-0.3,0.2-0.5,0.3l0,0c-3.8,2-8.9,2.2-14,0c-4.2-1.8-7.7-4.8-10.1-8.7c1.2,0.9,2.4,1.6,3.8,2.2
			c5.4,2.5,10.9,2.4,14.7,0c-5.5-4.2-10.1-9.7-13.6-14.2c-0.7-0.8-1.3-1.6-1.8-2.5c4.2,3.8,10.8,8.7,13.2,10
			c-5.1-5.3-9.5-11.9-9.3-11.7c8,8,15.3,12.6,15.3,12.6c0.3,0.2,0.5,0.3,0.6,0.4c0.2-0.4,0.3-0.8,0.4-1.2c1.3-4.7-0.2-10-3.4-14.4
			c7.4,4.4,11.8,12.9,10,20c0,0.2-0.1,0.3-0.1,0.5C418.8-45.5,417.8-40.6,417.3-41.6z"/>
	</g>
</g>
<path class="st0" d="M515-81c-13.8,0-25,11.2-25,25s11.2,25,25,25c13.8,0,25-11.2,25-25S528.8-81,515-81z M525-68.7
	c1.8,0,3.2,1.4,3.2,3.2c0,1.7-1.5,3.2-3.2,3.2c-1.7,0-3.1-1.4-3.2-3.2C521.8-67.3,523.2-68.7,525-68.7z M521.9-55.9c0,3.8-3.1,7-7,7
	c-3.8,0-7-3.1-7-7c0-3.9,3.1-7,7-7C518.8-62.9,521.9-59.8,521.9-55.9z M524.5-44c-6.2,4.9-15,4.3-20.6-1.4
	c-5.5-5.6-5.7-14.5-0.6-20.5c5.2-6.1,13.4-6.7,18.9-3.6c-0.3,0.3-0.7,0.7-0.9,1c-0.3,0.4-0.5,0.8-0.7,1.2c-3.6-1.7-7.3-1.7-10.9,0
	c-2.6,1.2-4.5,3.2-5.8,5.8c-2.5,4.9-1.3,11.1,2.8,14.8c4.2,3.8,10.4,4.3,15.1,1.4c4.3-2.7,7.7-8.9,4.9-15.7c0.9-0.3,1.7-0.8,2.3-1.6
	C531.5-57.1,530.8-49.1,524.5-44z"/>
<path class="st0" d="M458.5-81c-13.8,0-25,11.2-25,25s11.2,25,25,25s25-11.2,25-25S472.3-81,458.5-81z M470-55
	c0.7,0.6,1,1.6,0.8,2.5c-0.2,1-1.2,2.8-5.4,3.8c0,0-0.1,0-0.1,0c-0.1,0-0.2-0.1-0.3-0.2c-0.1-0.1-0.1-0.3,0.1-0.4
	c0,0,0.1-0.1,0.1-0.1c0-0.1,0.1-0.1,0.1-0.1c2.6-1.4,3.9-2.9,3.5-4.1c-0.3-0.7-1.1-1.2-1.9-1c0,0,0,0,0,0c-0.2,0-0.4,0.1-0.6,0.2
	c-0.1,0.1-0.3,0-0.4-0.1c-0.1-0.1-0.1-0.3,0-0.4c0.2-0.2,0.4-0.4,0.7-0.5C467.8-56.1,469.1-55.8,470-55z M466-66.9
	c0.1,0.1,0.2,0.2,0.2,0.3c0,0.1,0,0.3-0.2,0.3l0,0c-3.4,2-5,3.3-5.2,4.5c-0.2,0.8,0.4,1.5,1,2.5c0.1,0.1,0.1,0.2,0.2,0.3
	c0.5,0.7,0.7,1.4,0.5,2.2c-0.4,1.8-2.7,2.9-2.8,3c-0.1,0-0.1,0-0.2,0c-0.1,0-0.2-0.1-0.3-0.2c-0.1-0.1-0.1-0.4,0.1-0.5
	c0,0,0.8-0.7,0.9-1.6c0-0.5-0.1-0.9-0.5-1.4c-1.3-1.6-1.8-3.1-1.4-4.5c1-3.3,6.7-4.9,7.4-5.1c0,0,0,0,0,0
	C465.8-67,465.9-67,466-66.9z M454.4-63c0.8-1.2,2-2.1,3.2-3c2.4-1.9,4.7-3.7,3.8-7c0-0.2,0-0.3,0.2-0.4c0.1-0.1,0.3-0.1,0.4,0.1
	c0,0,1.1,1.1,1,2.9c-0.1,2-1.5,4.1-4.2,6.2c-1.7,1.4-2.6,2.6-2.5,3.9c0,1.1,0.8,2.1,1.5,3.1c0.4,0.6,0.9,1.2,1.2,1.9
	c0.1,0.2,0,0.3-0.1,0.4c-0.1,0-0.1,0.1-0.2,0.1c-0.1,0-0.2,0-0.2-0.1C455.2-57.7,452.7-60.4,454.4-63z M449.5-54.3
	c2.9-1.4,5.2-1.3,5.3-1.2c0.2,0,0.3,0.1,0.3,0.3c0,0.2-0.1,0.3-0.3,0.4c-1.3,0.3-2.6,0.8-3,1c0.1,0.1,0.4,0.1,0.9,0.2
	c1.5,0.2,4.7,0.2,7.8-0.1c2.4-0.2,4.9-0.6,4.9-0.6c0.2,0,0.3,0.1,0.4,0.2c0.1,0.2,0,0.4-0.2,0.4c0,0-0.8,0.4-1.4,0.8
	c0,0-0.1,0-0.1,0c-2.2,0.6-5.2,0.9-8.4,0.9c-0.3,0-0.6,0-0.9,0c-1.5,0-2.9-0.1-3.9-0.3c-1.6-0.3-1.9-0.6-2-0.9
	C448.6-53.6,448.8-54,449.5-54.3z M455.1-47.3c2.6,0.3,3.9,0.2,6.7-0.3c0.1,0,0.2,0,0.2,0c0.6,0.3,1.1,0.6,1.7,0.9
	c0.1,0.1,0.2,0.2,0.2,0.3c0,0.1-0.1,0.3-0.2,0.3c-1.8,0.8-3.9,1.2-5.9,1.2c-0.2,0-0.4,0-0.7,0c-2-0.1-3.7-0.5-4.4-1.2
	c-0.5-0.4-0.5-0.7-0.4-1c0.1-0.5,0.7-0.9,1.8-1.2c0.2,0,0.3,0,0.4,0.2c0.1,0.2,0,0.3-0.1,0.4c-0.1,0-0.1,0.1-0.1,0.1
	C454.3-47.4,454.6-47.3,455.1-47.3z M457.2-48.5c-0.4,0-0.9,0-1.3,0c-1.2-0.1-4.2-0.4-4.6-1.5c-0.2-0.7,0.5-1.3,2-1.8
	c0.2-0.1,0.3,0,0.4,0.2c0.1,0.2,0,0.3-0.1,0.4c-0.2,0.1-0.3,0.3-0.3,0.4c0,0,0.2,0.2,0.9,0.3c2.7,0.3,4.9,0.3,8.6-0.4
	c0.1,0,0.2,0,0.3,0.1c0.4,0.3,0.8,0.6,1.2,0.7c0.1,0.1,0.2,0.2,0.2,0.3c0,0.2-0.1,0.3-0.3,0.3C462.1-48.8,459.6-48.5,457.2-48.5z
	 M446.1-43.5c-0.1-0.4,0.2-0.8,0.8-1.2c1.3-0.8,4.1-1.6,5-0.9c0.1,0.1,0.2,0.3,0.1,0.4s-0.2,0.2-0.4,0.2c0,0-0.4,0-1,0.1
	c-0.7,0.1-1.5,0.5-1.7,0.7c0,0,0,0,0.1,0c1.4,0.6,4.8,0.9,9,0.9c3.9,0,7.6-0.4,9.4-1c0.9-0.3,1-0.5,1-0.6c0-0.1-0.1-0.2-0.1-0.2
	c-0.1-0.1-0.2-0.3-0.1-0.5c0.1-0.1,0.3-0.2,0.4-0.1c0.9,0.4,0.9,0.9,0.8,1.2c-0.4,1.2-3.7,2-6.8,2.4c-1.3,0.2-3.2,0.3-5.6,0.3
	c-2.5,0-5.5-0.2-8.9-0.7C446.8-42.6,446.2-43,446.1-43.5z M465.1-40.6c-1.9,0.3-4.1,0.4-6.4,0.4c-1.1,0-2.3,0-3.3-0.1
	c-3.5-0.2-4.5-0.8-4.8-0.9c-0.1-0.1-0.1-0.1-0.2-0.2c0-0.1,0-0.3,0.2-0.4c0,0,0.1-0.1,0.2,0c3.6,0.6,9.8,0.7,14.7-0.2
	c3.8-0.7,4.5-1.6,4.6-1.7c0-0.2,0.2-0.3,0.4-0.2c0.2,0,0.3,0.2,0.3,0.4C470.8-42.1,468.8-41.1,465.1-40.6z"/>
</svg>
